<svg xmlns="http://www.w3.org/2000/svg" viewBox="0 0 47.576 47.459">
  <defs>
    <style>
      .cls-1 {
        fill: #10b56b;
      }
    </style>
  </defs>
  <g id="Layer_2" data-name="Layer 2">
    <g id="Layer_1-2" data-name="Layer 1">
      <path class="cls-1" d="M47.521,12.965a14.429,14.429,0,0,0-.85-3.84,13.094,13.094,0,0,0-1.93-3.52c-.77-.91-1.62-1.75-2.43-2.609l-.06.049c-.08-.06-.15-.12-.23-.179a12.445,12.445,0,0,0-3.76-2,30.607,30.607,0,0,0-3.14-.75,14.041,14.041,0,0,0-5.97.669,10.657,10.657,0,0,0-3.78,1.92,20.822,20.822,0,0,0-2.23,1.96,9.156,9.156,0,0,0-1.01,1.5,11.533,11.533,0,0,0-1.7,4.37,13.267,13.267,0,0,0,.09,4.66,7.008,7.008,0,0,1,.33,2.32c-.08.481-.49,1.03-.83.99a9.75,9.75,0,0,0-2.95.12,2.23,2.23,0,0,0-1.3.73.882.882,0,0,0-.12,1.11c.2.36.47.68.67,1.05a.808.808,0,0,1,.08.55c-.18.72-.4,1.431-.58,2.15-.08.341-.07.71-.13,1.06-.12.62-.28,1.221-.38,1.83-.09.55-.23.73-.76.84-.8.171-1.01.39-1.13,1.2-.1.74-.17,1.48-.28,2.221a.973.973,0,0,1-.93.949,22.257,22.257,0,0,1-2.29.25.8.8,0,0,0-.77.51,5.5,5.5,0,0,0-.19.8c-.07.241-.09.57-.26.69a2.329,2.329,0,0,1-.92.32c-.51.1-1.04.13-1.55.21a1.315,1.315,0,0,0-1.29,1.04,3.969,3.969,0,0,1-.28.82.528.528,0,0,1-.27.28,7.123,7.123,0,0,1-2.41.451,2.242,2.242,0,0,0-1.46.62.27.27,0,0,0-.11.2c-.03.95-.07,1.9-.07,2.85,0,1,.03,2.011.05,3.011a.323.323,0,0,1-.08.179,1.183,1.183,0,0,0,.38,1.88,10.343,10.343,0,0,0,3.51,1.02,1.906,1.906,0,0,0,1.31-.35c.79-.63,1.49-1.37,2.23-2.06.76-.729,1.51-1.46,2.28-2.169.31-.281.67-.5.98-.781.45-.4.87-.83,1.31-1.24.62-.57,1.24-1.12,1.85-1.68.55-.51,1.08-1.02,1.63-1.53.53-.5,1.08-.99,1.59-1.5.57-.579,1.09-1.2,1.67-1.769.84-.821,1.71-1.611,2.57-2.4.4-.37.82-.71,1.22-1.08.22-.21.39-.47.62-.67.69-.62,1.41-1.219,2.1-1.84.87-.77,1.7-1.59,2.58-2.34a1.367,1.367,0,0,1,.92-.34c.83.12,1.65.38,2.47.551a18.016,18.016,0,0,0,2.17.349,13.177,13.177,0,0,0,6.99-1.53,12.8,12.8,0,0,0,2.37-1.66,13.509,13.509,0,0,0,3.29-4.23,12.632,12.632,0,0,0,.95-3.04A9.12,9.12,0,0,0,47.521,12.965Zm-9.29-.59c-4.17,0-4.16-6.45,0-6.45S42.381,12.375,38.231,12.375Z"/>
    </g>
  </g>
</svg>
